<svg width="32" height="32" viewBox="0 0 32 32" fill="none" xmlns="http://www.w3.org/2000/svg">
<path fill-rule="evenodd" clip-rule="evenodd" d="M30.7859 22.1246L28.9385 21.3585C29.6218 19.7106 30 17.902 30 16C30 14.098 29.6218 12.2894 28.9385 10.6415L30.7859 9.87539C31.5682 11.7619 32 13.8305 32 16C32 18.1695 31.5682 20.2381 30.7859 22.1246ZM22.1246 1.21409L21.3585 3.06154C19.7106 2.37817 17.902 2 16 2C14.098 2 12.2894 2.37817 10.6415 3.06154L9.87539 1.21409C11.7619 0.431779 13.8305 0 16 0C18.1695 0 20.2381 0.431778 22.1246 1.21409ZM1.21409 9.8754C0.431778 11.7619 0 13.8305 0 16C0 18.1695 0.431779 20.2381 1.21409 22.1246L3.06154 21.3585C2.37817 19.7106 2 17.902 2 16C2 14.098 2.37817 12.2894 3.06154 10.6415L1.21409 9.8754ZM9.8754 30.7859L10.6415 28.9385C12.2894 29.6218 14.098 30 16 30C17.902 30 19.7106 29.6218 21.3585 28.9385L22.1246 30.7859C20.2381 31.5682 18.1695 32 16 32C13.8305 32 11.7619 31.5682 9.8754 30.7859Z" fill="#5221E6"/>
<path d="M21 16L13.5 20.3302L13.5 11.6699L21 16Z" fill="#5221E6"/>
</svg>
